<?xml version="1.0" encoding="UTF-8"?>
<svg id="COULEUR" xmlns="http://www.w3.org/2000/svg" viewBox="0 0 1834.02 554.84">
  <g>
    <path d="M317.45,73.62c2.89,1.25,6.08.83,8.51-.83,14.24,7.58,28.02,19.37,38.61,33.2,13.05,17.05,21.26,36.85,23.98,57.66-1.27.9-2.32,2.14-2.99,3.68-1.85,4.27-.06,9.18,3.99,11.31-.04,24.2-8.05,44.2-15.15,57.18-9.28,16.97-20.15,28.11-24.61,31.63-7.81,6.17-11.38,15.31-9.32,23.85,1.67,6.9,6.89,12.01,13.65,13.35,1.08.21,2.34.36,3.77.36,7.26,0,18.81-3.79,32.78-21.73,4.1,1,8.45-1.06,10.18-5.07,1.26-2.91.82-6.12-.86-8.54,11.19-18.28,20.26-40.64,24.94-61.97,7.2-32.87,4.66-64.22-7.32-91.03.26-.4.5-.83.69-1.28,1.94-4.48-.12-9.68-4.6-11.61-4.48-1.94-9.68.12-11.61,4.6-1.94,4.48.12,9.68,4.6,11.61,1.03.44,2.09.67,3.14.71,11.03,24.99,13.31,54.3,6.56,85.13-4.55,20.75-13.42,42.48-24.34,60.08-3.15.25-6.07,2.19-7.41,5.3-.86,1.99-.93,4.12-.35,6.04-10.26,13.35-20.77,20.36-28.47,18.83-3.47-.68-5.96-3.17-6.84-6.82-.98-4.06.14-10.12,6.24-14.94,11.66-9.22,43.17-45.75,43.08-95.96,1.49-.92,2.73-2.28,3.48-4.01,1.93-4.45-.1-9.61-4.52-11.58-5.98-46.8-36.55-81.65-67.48-97.87-.23-3.18-2.17-6.13-5.3-7.49-4.48-1.94-9.68.12-11.61,4.6-1.94,4.48.12,9.68,4.6,11.61Z" fill="#fbcb9b"/>
    <path d="M466.61,269.85c-4.48-1.94-9.68.12-11.61,4.6-1.25,2.88-.83,6.06.81,8.48-4.14,7.27-15.15,25.19-31.46,41.53-27.54,27.58-56.41,37.86-85.84,30.56-15.41-3.83-27.34-9.66-35.68-17.43.17-.3.33-.6.47-.92,1.94-4.48-.12-9.68-4.6-11.61-1.85-.8-3.81-.91-5.62-.46-.51-1.04-.99-2.11-1.41-3.2-8.85-22.54-.53-54.79,24.72-95.96,2.99-.39,5.7-2.28,6.98-5.24.89-2.06.93-4.27.28-6.25,18.09-29.51,14.64-62.08-9.1-83.57-11.37-10.3-26.02-16.47-41.26-17.38-12.26-.73-24.17,1.94-35.04,7.77-.25-.14-.51-.27-.77-.38-4.48-1.94-9.68.12-11.61,4.6-.66,1.53-.85,3.14-.64,4.68-50.81,41.65-60.1,83.25-70.05,131.14-2.69.58-5.08,2.4-6.26,5.12-1.94,4.48.12,9.68,4.6,11.61,4.48,1.94,9.68-.12,11.61-4.6,1.42-3.29.68-6.96-1.58-9.45,10.06-48.44,18.43-86.99,66.98-126.87,4.46,1.89,9.62-.17,11.55-4.62.53-1.23.75-2.52.71-3.78,24.35-12.88,50.35-5.44,65.89,8.64,9.51,8.61,15.66,20.06,17.3,32.21,1.71,12.67-1.4,26.06-8.98,38.96-4-.81-8.16,1.25-9.85,5.15-1.31,3.03-.79,6.39,1.08,8.85-26.19,43.13-34.52,77.6-24.71,102.57.88,2.25,1.92,4.41,3.09,6.49-1,4.1,1.06,8.45,5.07,10.18,1.01.44,2.06.66,3.1.71,9.52,9.81,23.44,17.02,41.63,21.53,6.68,1.66,13.37,2.48,20.04,2.48,25.54,0,50.88-12.04,74.24-35.5,17.48-17.55,28.86-36.34,33-43.71,3.19-.22,6.16-2.16,7.52-5.3,1.94-4.48-.12-9.68-4.6-11.61Z" fill="#fbcb9b"/>
    <path d="M321.23,378.12c-2.74-1.19-5.75-.87-8.12.58-32.94-17.13-51.88-40.81-56.35-70.48-2.49-16.54-.08-33.46,4.7-48.85,2.89-.46,5.48-2.33,6.73-5.21,1.39-3.2.72-6.77-1.4-9.25,7.91-18.53,18.48-33.39,26.11-40.31,9.2-8.34,13.17-22.43,10.13-35.89-2.66-11.77-10.26-20.59-20.32-23.61-8.05-2.42-20.55-2.11-37.45,9.8-4.2-1.2-8.74.86-10.52,4.98-.58,1.35-.8,2.77-.7,4.14-.81.74-1.62,1.5-2.44,2.29-53.8,51.66-51.46,116.48-43.19,163.36-1.01.85-1.85,1.94-2.41,3.23-1.94,4.48.12,9.68,4.6,11.61,4.48,1.94,9.68-.12,11.61-4.6,1.94-4.48-.12-9.68-4.6-11.61-.2-.09-.41-.16-.61-.23-7.89-44.86-10.14-106.69,40.65-155.45.45-.43.9-.86,1.35-1.28.11.05.22.11.33.16,4.48,1.94,9.68-.12,11.61-4.6.8-1.84.91-3.8.46-5.6,10.95-7.43,20.87-10.19,28.78-7.82,7.11,2.13,12.32,8.39,14.31,17.17,2.36,10.43-.57,21.22-7.47,27.48-8.55,7.76-20.08,23.81-28.57,43.85-2.78.52-5.27,2.38-6.48,5.17-1.35,3.12-.76,6.58,1.24,9.05-5.23,16.65-7.85,35.08-5.1,53.32,4.9,32.55,25.33,58.37,60.77,76.84.05,3.36,2.03,6.55,5.32,7.97,4.48,1.94,9.68-.12,11.61-4.6,1.94-4.48-.12-9.68-4.6-11.61Z" fill="#fbcb9b"/>
    <path d="M241.29,343.53c-1.61-.7-3.3-.87-4.91-.61-11.3-19.31-19.8-49.95-5.38-93.2,9.51-28.54,25.84-52.27,39.05-64.97,4.34,1.52,9.17-.54,11.03-4.82,1.94-4.48-.12-9.68-4.6-11.61-4.48-1.94-9.68.12-11.61,4.6-.74,1.71-.89,3.53-.55,5.23-6.51,6.2-13.29,14.44-19.59,23.89-9.23,13.85-16.84,29.38-22.02,44.92-8.99,26.96-14.75,65.93,6.83,101.55-1.67,4.39.39,9.36,4.74,11.24,4.48,1.94,9.68-.12,11.61-4.6,1.94-4.48-.12-9.68-4.6-11.61Z" fill="#fbcb9b"/>
    <path d="M162.98,165.66c4.48,1.94,9.68-.12,11.61-4.6,1.18-2.72.87-5.71-.55-8.07,6.79-11.2,23.26-34.55,50.44-50.34.37.23.75.44,1.15.62,4.48,1.94,9.68-.12,11.61-4.6.38-.88.6-1.8.69-2.71,17.87-7.38,36.21-8.89,53.45-4.3,17,4.52,32.26,14.74,44.51,29.7-.88,4.04,1.18,8.27,5.12,9.98.85.37,1.73.59,2.61.68,12.28,19.04,16.48,37.19,12.83,55.35-3.56,17.7-13.98,33.75-24.06,49.26-4.67,7.19-9.22,14.2-13.08,21.28-3.34.07-6.5,2.04-7.92,5.32-1.35,3.12-.75,6.6,1.25,9.07-1.89,5.12-3.25,10.33-3.86,15.73-2.03,18.06,8.08,35.52,25.15,43.45,6.11,2.84,12.76,4.26,19.67,4.26,4.87,0,9.86-.71,14.91-2.13,11.84-3.33,23.54-10.41,34.85-21.07,4.18,1.16,8.68-.91,10.45-5,.89-2.05.93-4.24.29-6.21,20.58-23.16,33.22-46.49,39.57-72.9,5.78-24.07,5.58-48.26,4.35-71.28,1.42-.91,2.59-2.24,3.31-3.9,1.94-4.48-.12-9.68-4.6-11.61-4.48-1.94-9.68.12-11.61,4.6-1.87,4.33,0,9.33,4.18,11.41,2.55,49.03-.47,91.31-41.64,137.78-4.07-.93-8.34,1.14-10.06,5.1-.83,1.92-.92,3.96-.41,5.83-28.67,26.96-50.99,21.17-59.58,17.18-13.44-6.24-21.73-20.45-20.14-34.54.51-4.57,1.69-9.07,3.34-13.54,2.91-.44,5.54-2.32,6.79-5.22,1.19-2.76.87-5.79-.61-8.16,3.72-6.82,8.17-13.67,12.73-20.68,19.86-30.57,42.24-65.05,11.96-113,.36-.51.68-1.06.94-1.65,1.94-4.48-.12-9.68-4.6-11.61-2.04-.88-4.22-.93-6.18-.3-27.59-32.91-68.36-43.11-107.55-26.83-.51-.36-1.06-.68-1.65-.94-4.48-1.94-9.68.12-11.61,4.6-.47,1.08-.7,2.2-.72,3.3-29.45,16.98-46.81,41.78-53.96,53.77-3.36.05-6.55,2.03-7.97,5.32-1.94,4.48.12,9.68,4.6,11.61Z" fill="#fbcb9b"/>
  </g>
  <g>
    <path d="M492.24,375.46v79.38h-19.88v-79.38h-25.76l2.94-18.62h65.52l2.8,18.62h-25.62Z" fill="#363c8f"/>
    <path d="M588.98,437.06l-2.66,17.78h-56.84v-98h55.16l2.8,17.64h-38.36v21.42h31.36v17.78h-31.36v23.38h39.9Z" fill="#363c8f"/>
    <path d="M596.4,405.84c0-28.56,22.96-50.96,52.78-50.96,8.96,0,17.36,1.96,24.5,5.46l-3.08,19.6c-6.16-3.64-13.72-6.02-21.28-6.02-18.34,0-32.34,13.86-32.34,31.92s14,31.78,32.34,31.78c7.7,0,15.26-2.38,22.54-6.86l3.08,19.6c-8.12,4.2-17.22,6.44-26.32,6.44-29.4,0-52.22-22.4-52.22-50.96Z" fill="#363c8f"/>
    <path d="M774.34,355.58v99.26h-19.88v-40.32h-43.82v40.32h-19.88v-96.88l19.88-2.38v39.9h43.82v-37.52l19.88-2.38Z" fill="#363c8f"/>
    <path d="M878.64,459.04l-65.24-61.32v57.12h-19.88v-102.2l65.24,61.04v-55.72l19.88-2.38v103.46Z" fill="#363c8f"/>
    <path d="M893.76,405.84c0-28.56,22.82-50.96,52.08-50.96s52.08,22.4,52.08,50.96-22.96,50.96-52.08,50.96-52.08-22.4-52.08-50.96ZM977.48,405.84c0-18.06-13.86-32.06-31.64-32.06s-31.64,14-31.64,32.06,13.86,31.92,31.64,31.92,31.64-14,31.64-31.92Z" fill="#363c8f"/>
    <path d="M1070.16,435.8l-2.94,19.04h-54.32v-96.88l19.88-2.38v80.22h37.38Z" fill="#363c8f"/>
    <path d="M1074.08,405.84c0-28.56,22.82-50.96,52.08-50.96s52.08,22.4,52.08,50.96-22.96,50.96-52.08,50.96-52.08-22.4-52.08-50.96ZM1157.8,405.84c0-18.06-13.86-32.06-31.64-32.06s-31.64,14-31.64,32.06,13.86,31.92,31.64,31.92,31.64-14,31.64-31.92Z" fill="#363c8f"/>
    <path d="M1274.56,397.86v49.84c-9.38,5.6-21.7,9.1-33.88,9.1-28.84,0-51.66-22.4-51.66-50.96s23.24-50.96,52.92-50.96c9.94,0,19.74,2.52,27.72,6.72l-2.94,18.9c-7.42-4.48-16.1-7-24.36-7-18.76,0-33.18,14-33.18,32.34s14,32.2,32.34,32.2c5.6,0,10.36-.84,14.84-2.8v-20.44h-21.98l2.66-16.94h37.52Z" fill="#363c8f"/>
    <path d="M1293.04,358.1l19.88-2.52v99.26h-19.88v-96.74Z" fill="#363c8f"/>
    <path d="M1392.29,437.06l-2.66,17.78h-56.84v-98h55.16l2.8,17.64h-38.36v21.42h31.36v17.78h-31.36v23.38h39.9Z" fill="#363c8f"/>
    <path d="M1402.94,446.44l3.08-18.9c9.1,7.42,19.04,11.76,28.28,11.76s13.72-5.18,13.72-11.48c0-5.18-2.94-9.8-12.46-12.88l-6.02-1.96c-17.64-5.74-24.08-16.8-24.08-29.54,0-16.24,12.74-28.56,31.5-28.56,8.54,0,17.78,2.38,27.02,7.14l-2.94,18.48c-9.1-5.46-17.22-8.4-24.36-8.4-7.7,0-12.04,4.62-12.04,10.5,0,5.32,2.94,9.52,13.02,12.74l6.02,1.96c17.22,5.6,23.94,16.94,23.94,29.4,0,15.82-11.34,30.1-33.04,30.1-12.88,0-23.66-4.9-31.64-10.36Z" fill="#363c8f"/>
  </g>
  <g>
    <path d="M390.66,250.65h-53.27l-19.6,45.72h-19.8l66.13-147.98,65.93,147.98h-19.8l-19.6-45.72ZM383.72,234.33l-19.6-45.93-19.8,45.93h39.39Z" fill="#363c8f"/>
    <path d="M536.41,148.19v148.19h-16.74v-13.06c-7.76,9.39-18.98,15.1-32.45,15.1-25.31,0-46.13-20.62-46.13-47.35s20.82-47.35,46.13-47.35c13.27,0,24.29,5.51,32.05,14.7v-67.36l17.15-2.86ZM520.49,251.06c0-17.76-13.68-31.84-31.23-31.84s-31.03,14.08-31.03,31.84,13.47,32.05,31.03,32.05,31.23-14.08,31.23-32.05Z" fill="#363c8f"/>
    <path d="M647.25,205.95l-46.13,94.91-46.33-94.91h18.78l27.56,59.6,27.35-59.6h18.78Z" fill="#363c8f"/>
    <path d="M712.16,296.38l-.61-5.92c-5.92,5.1-13.88,8.16-22.66,8.16-19.19,0-33.88-14.49-33.88-33.07s14.7-32.86,34.09-32.86c8.57,0,15.72,3.06,21.23,7.55v-4.9c0-11.43-4.9-17.15-19.39-17.15-7.76,0-14.9,1.63-22.04,4.08l2.86-14.9c7.14-2.25,13.68-3.27,20.62-3.27,22.86,0,34.7,10.82,34.7,29.8v45.31l.82,17.15h-15.72ZM711.55,265.56c0-11.02-8.98-19.39-20.21-19.39s-20,8.37-20,19.39,8.78,19.19,20,19.19,20.21-8.57,20.21-19.19Z" fill="#363c8f"/>
    <path d="M837.49,241.67v54.7h-17.15v-53.07c0-15.72-8.98-24.09-21.84-24.09-13.88,0-24.09,10-24.09,25.92v51.23h-17.15v-89.2l16.33-2.65v12.04c6.74-8.16,16.74-12.86,28.58-12.86,20.82,0,35.31,14.08,35.31,37.97Z" fill="#363c8f"/>
    <path d="M860.76,251.06c0-26.33,21.43-47.35,48.17-47.35,7.96,0,15.92,1.84,23.88,5.72l-2.86,15.72c-6.53-3.67-13.47-5.92-20.62-5.92-18.37,0-31.43,14.08-31.43,31.84s13.27,32.05,31.43,32.05c7.96,0,15.31-2.86,21.64-6.53l2.65,16.13c-7.55,3.67-15.92,5.92-24.7,5.92-26.54,0-48.17-21.23-48.17-47.56Z" fill="#363c8f"/>
    <path d="M1031.2,267.39l6.12,14.7c-11.23,10.61-25.11,16.53-40.21,16.53-27.96,0-48.38-20.82-48.38-47.35s20.82-47.56,47.76-47.56c22.66,0,40.21,14.9,43.27,38.58l-71.85,23.27c4.9,10.82,15.51,18.17,29.39,18.17,12.25,0,23.68-5.1,33.88-16.33ZM964.87,251.47l55.93-18.17c-3.88-9.19-13.27-14.9-24.29-14.9-17.96,0-31.64,14.49-31.64,33.07Z" fill="#363c8f"/>
    <path d="M1152.66,148.19v148.19h-16.74v-13.06c-7.76,9.39-18.98,15.1-32.46,15.1-25.31,0-46.13-20.62-46.13-47.35s20.82-47.35,46.13-47.35c13.27,0,24.29,5.51,32.05,14.7v-67.36l17.15-2.86ZM1136.74,251.06c0-17.76-13.68-31.84-31.23-31.84s-31.03,14.08-31.03,31.84,13.47,32.05,31.03,32.05,31.23-14.08,31.23-32.05Z" fill="#363c8f"/>
    <path d="M1224.71,224.94c0-41.44,32.86-73.89,75.52-73.89,13.47,0,25.72,3.06,36.74,8.78l-3.27,18.57c-9.59-6.12-21.43-10-33.68-10-31.23,0-56.13,24.9-56.13,56.54s24.7,56.54,56.13,56.54c13.27,0,24.7-4.08,35.52-11.23l3.27,18.57c-11.84,6.53-25.11,10-38.99,10-42.25,0-75.12-32.45-75.12-73.89Z" fill="#363c8f"/>
    <path d="M1416.18,296.38l-.61-5.92c-5.92,5.1-13.88,8.16-22.66,8.16-19.19,0-33.88-14.49-33.88-33.07s14.7-32.86,34.09-32.86c8.57,0,15.72,3.06,21.23,7.55v-4.9c0-11.43-4.9-17.15-19.39-17.15-7.76,0-14.9,1.63-22.04,4.08l2.86-14.9c7.14-2.25,13.68-3.27,20.62-3.27,22.86,0,34.7,10.82,34.7,29.8v45.31l.82,17.15h-15.72ZM1415.57,265.56c0-11.02-8.98-19.39-20.21-19.39s-20,8.37-20,19.39,8.78,19.19,20,19.19,20.21-8.57,20.21-19.19Z" fill="#363c8f"/>
    <path d="M1508.65,204.32v16.74c-19.8,0-30.21,9.59-30.21,29.39v45.93h-17.15v-89.2l16.33-2.65v14.9c6.12-9.8,16.33-15.1,31.03-15.1Z" fill="#363c8f"/>
    <path d="M1603.16,267.39l6.12,14.7c-11.23,10.61-25.11,16.53-40.21,16.53-27.96,0-48.38-20.82-48.38-47.35s20.82-47.56,47.76-47.56c22.66,0,40.21,14.9,43.27,38.58l-71.85,23.27c4.9,10.82,15.51,18.17,29.39,18.17,12.25,0,23.68-5.1,33.88-16.33ZM1536.82,251.47l55.93-18.17c-3.88-9.19-13.27-14.9-24.29-14.9-17.96,0-31.64,14.49-31.64,33.07Z" fill="#363c8f"/>
  </g>
</svg>